<mxfile host="app.diagrams.net" modified="2022-06-19T07:59:13.154Z" agent="5.0 (Windows NT 10.0; Win64; x64) AppleWebKit/537.36 (KHTML, like Gecko) Chrome/100.0.4896.127 Safari/537.36" etag="zVmMcVHd0xNPw1dTavU-" version="20.0.1" type="github">
  <diagram id="k7aDfp0SLZv7EjQjEV19" name="第 1 页">
    <mxGraphModel dx="1730" dy="818" grid="1" gridSize="10" guides="1" tooltips="1" connect="1" arrows="1" fold="1" page="1" pageScale="1" pageWidth="827" pageHeight="1169" math="0" shadow="0">
      <root>
        <mxCell id="0" />
        <mxCell id="1" parent="0" />
        <mxCell id="IxA2MM6vDqe0YE7jZ0CJ-1" value="" style="rounded=1;whiteSpace=wrap;html=1;arcSize=26;" vertex="1" parent="1">
          <mxGeometry x="74.5" y="635.5" width="310" height="175" as="geometry" />
        </mxCell>
        <mxCell id="IxA2MM6vDqe0YE7jZ0CJ-2" value="" style="rounded=1;whiteSpace=wrap;html=1;arcSize=26;" vertex="1" parent="1">
          <mxGeometry x="65" y="630.5" width="310" height="175" as="geometry" />
        </mxCell>
        <mxCell id="IxA2MM6vDqe0YE7jZ0CJ-3" value="" style="rounded=1;whiteSpace=wrap;html=1;dashed=1;fillColor=none;" vertex="1" parent="1">
          <mxGeometry x="40" y="598" width="760" height="562" as="geometry" />
        </mxCell>
        <mxCell id="IxA2MM6vDqe0YE7jZ0CJ-4" value="" style="rounded=1;whiteSpace=wrap;html=1;arcSize=30;" vertex="1" parent="1">
          <mxGeometry x="200" y="40" width="440" height="110" as="geometry" />
        </mxCell>
        <mxCell id="IxA2MM6vDqe0YE7jZ0CJ-5" value="" style="rounded=1;whiteSpace=wrap;html=1;arcSize=29;" vertex="1" parent="1">
          <mxGeometry x="180" y="30" width="440" height="110" as="geometry" />
        </mxCell>
        <mxCell id="IxA2MM6vDqe0YE7jZ0CJ-6" value="" style="rounded=1;whiteSpace=wrap;html=1;arcSize=21;" vertex="1" parent="1">
          <mxGeometry x="160" y="20" width="440" height="110" as="geometry" />
        </mxCell>
        <mxCell id="IxA2MM6vDqe0YE7jZ0CJ-7" value="" style="rounded=0;whiteSpace=wrap;html=1;dashed=1;dashPattern=1 4;" vertex="1" parent="1">
          <mxGeometry x="190" y="45" width="380" height="75" as="geometry" />
        </mxCell>
        <mxCell id="IxA2MM6vDqe0YE7jZ0CJ-8" value="数据资源访问模块" style="text;html=1;strokeColor=none;fillColor=none;align=center;verticalAlign=middle;whiteSpace=wrap;rounded=0;dashed=1;dashPattern=1 4;" vertex="1" parent="1">
          <mxGeometry x="280" y="15" width="170" height="30" as="geometry" />
        </mxCell>
        <mxCell id="IxA2MM6vDqe0YE7jZ0CJ-9" value="数据操作代理模块" style="rounded=0;whiteSpace=wrap;html=1;" vertex="1" parent="1">
          <mxGeometry x="197" y="60" width="63" height="55" as="geometry" />
        </mxCell>
        <mxCell id="IxA2MM6vDqe0YE7jZ0CJ-10" value="数据操作信息管理模块" style="rounded=0;whiteSpace=wrap;html=1;" vertex="1" parent="1">
          <mxGeometry x="270" y="60" width="60" height="55" as="geometry" />
        </mxCell>
        <mxCell id="IxA2MM6vDqe0YE7jZ0CJ-11" value="数据操作生成模块" style="rounded=0;whiteSpace=wrap;html=1;" vertex="1" parent="1">
          <mxGeometry x="341" y="60" width="73" height="55" as="geometry" />
        </mxCell>
        <mxCell id="IxA2MM6vDqe0YE7jZ0CJ-12" value="数据源权限模块" style="rounded=0;whiteSpace=wrap;html=1;" vertex="1" parent="1">
          <mxGeometry x="423" y="60" width="60" height="55" as="geometry" />
        </mxCell>
        <mxCell id="IxA2MM6vDqe0YE7jZ0CJ-13" value="区域信息管理模块" style="rounded=0;whiteSpace=wrap;html=1;" vertex="1" parent="1">
          <mxGeometry x="490" y="60" width="70" height="55" as="geometry" />
        </mxCell>
        <mxCell id="IxA2MM6vDqe0YE7jZ0CJ-14" value="跨域局域网" style="ellipse;whiteSpace=wrap;html=1;" vertex="1" parent="1">
          <mxGeometry x="354" y="190" width="120" height="80" as="geometry" />
        </mxCell>
        <mxCell id="IxA2MM6vDqe0YE7jZ0CJ-15" value="" style="endArrow=none;html=1;rounded=0;" edge="1" parent="1" source="IxA2MM6vDqe0YE7jZ0CJ-14">
          <mxGeometry width="50" height="50" relative="1" as="geometry">
            <mxPoint x="414" y="169.28932188134524" as="sourcePoint" />
            <mxPoint x="414" y="119.2893218813449" as="targetPoint" />
          </mxGeometry>
        </mxCell>
        <mxCell id="IxA2MM6vDqe0YE7jZ0CJ-16" value="&lt;span style=&quot;&quot;&gt;局域E&lt;/span&gt;" style="rounded=0;whiteSpace=wrap;html=1;" vertex="1" parent="1">
          <mxGeometry x="570" y="200" width="120" height="60" as="geometry" />
        </mxCell>
        <mxCell id="IxA2MM6vDqe0YE7jZ0CJ-17" value="局域A" style="rounded=0;whiteSpace=wrap;html=1;" vertex="1" parent="1">
          <mxGeometry x="140" y="200" width="120" height="60" as="geometry" />
        </mxCell>
        <mxCell id="IxA2MM6vDqe0YE7jZ0CJ-18" value="&lt;span style=&quot;&quot;&gt;局域B&lt;/span&gt;" style="rounded=0;whiteSpace=wrap;html=1;" vertex="1" parent="1">
          <mxGeometry x="160" y="320" width="120" height="60" as="geometry" />
        </mxCell>
        <mxCell id="IxA2MM6vDqe0YE7jZ0CJ-19" value="&lt;span style=&quot;&quot;&gt;局域D&lt;/span&gt;" style="rounded=0;whiteSpace=wrap;html=1;" vertex="1" parent="1">
          <mxGeometry x="560" y="320" width="120" height="60" as="geometry" />
        </mxCell>
        <mxCell id="IxA2MM6vDqe0YE7jZ0CJ-20" value="&lt;span style=&quot;&quot;&gt;局域C&lt;/span&gt;" style="rounded=0;whiteSpace=wrap;html=1;" vertex="1" parent="1">
          <mxGeometry x="354" y="390" width="120" height="60" as="geometry" />
        </mxCell>
        <mxCell id="IxA2MM6vDqe0YE7jZ0CJ-21" value="" style="endArrow=none;html=1;rounded=0;entryX=1;entryY=0.5;entryDx=0;entryDy=0;" edge="1" parent="1" source="IxA2MM6vDqe0YE7jZ0CJ-14" target="IxA2MM6vDqe0YE7jZ0CJ-17">
          <mxGeometry width="50" height="50" relative="1" as="geometry">
            <mxPoint x="283.28932188134524" y="280" as="sourcePoint" />
            <mxPoint x="283.28932188134524" y="230" as="targetPoint" />
          </mxGeometry>
        </mxCell>
        <mxCell id="IxA2MM6vDqe0YE7jZ0CJ-22" value="" style="endArrow=none;html=1;rounded=0;exitX=0.5;exitY=0;exitDx=0;exitDy=0;entryX=0;entryY=1;entryDx=0;entryDy=0;" edge="1" parent="1" source="IxA2MM6vDqe0YE7jZ0CJ-18" target="IxA2MM6vDqe0YE7jZ0CJ-14">
          <mxGeometry width="50" height="50" relative="1" as="geometry">
            <mxPoint x="410" y="340" as="sourcePoint" />
            <mxPoint x="460" y="290" as="targetPoint" />
          </mxGeometry>
        </mxCell>
        <mxCell id="IxA2MM6vDqe0YE7jZ0CJ-23" value="" style="endArrow=none;html=1;rounded=0;exitX=0.5;exitY=0;exitDx=0;exitDy=0;entryX=0.5;entryY=1;entryDx=0;entryDy=0;" edge="1" parent="1" source="IxA2MM6vDqe0YE7jZ0CJ-20" target="IxA2MM6vDqe0YE7jZ0CJ-14">
          <mxGeometry width="50" height="50" relative="1" as="geometry">
            <mxPoint x="230" y="330" as="sourcePoint" />
            <mxPoint x="381.57359312881" y="268.28427124745997" as="targetPoint" />
          </mxGeometry>
        </mxCell>
        <mxCell id="IxA2MM6vDqe0YE7jZ0CJ-24" value="" style="endArrow=none;html=1;rounded=0;exitX=0.5;exitY=0;exitDx=0;exitDy=0;entryX=1;entryY=1;entryDx=0;entryDy=0;" edge="1" parent="1" source="IxA2MM6vDqe0YE7jZ0CJ-19" target="IxA2MM6vDqe0YE7jZ0CJ-14">
          <mxGeometry width="50" height="50" relative="1" as="geometry">
            <mxPoint x="240" y="340" as="sourcePoint" />
            <mxPoint x="391.57359312881" y="278.28427124745997" as="targetPoint" />
          </mxGeometry>
        </mxCell>
        <mxCell id="IxA2MM6vDqe0YE7jZ0CJ-25" value="" style="endArrow=none;html=1;rounded=0;exitX=0;exitY=0.5;exitDx=0;exitDy=0;entryX=1;entryY=0.5;entryDx=0;entryDy=0;" edge="1" parent="1" source="IxA2MM6vDqe0YE7jZ0CJ-16" target="IxA2MM6vDqe0YE7jZ0CJ-14">
          <mxGeometry width="50" height="50" relative="1" as="geometry">
            <mxPoint x="250" y="350" as="sourcePoint" />
            <mxPoint x="401.57359312881" y="288.28427124745997" as="targetPoint" />
          </mxGeometry>
        </mxCell>
        <mxCell id="IxA2MM6vDqe0YE7jZ0CJ-26" value="" style="ellipse;whiteSpace=wrap;html=1;dashed=1;fillColor=none;" vertex="1" parent="1">
          <mxGeometry x="324" y="365" width="180" height="110" as="geometry" />
        </mxCell>
        <mxCell id="IxA2MM6vDqe0YE7jZ0CJ-28" value="" style="endArrow=none;dashed=1;html=1;dashPattern=1 3;strokeWidth=2;rounded=0;entryX=0;entryY=0.5;entryDx=0;entryDy=0;" edge="1" parent="1" target="IxA2MM6vDqe0YE7jZ0CJ-26">
          <mxGeometry width="50" height="50" relative="1" as="geometry">
            <mxPoint x="110" y="600" as="sourcePoint" />
            <mxPoint x="160" y="550" as="targetPoint" />
          </mxGeometry>
        </mxCell>
        <mxCell id="IxA2MM6vDqe0YE7jZ0CJ-29" value="" style="endArrow=none;dashed=1;html=1;dashPattern=1 3;strokeWidth=2;rounded=0;entryX=1;entryY=0.5;entryDx=0;entryDy=0;exitX=0.923;exitY=-0.003;exitDx=0;exitDy=0;exitPerimeter=0;" edge="1" parent="1" target="IxA2MM6vDqe0YE7jZ0CJ-26">
          <mxGeometry width="50" height="50" relative="1" as="geometry">
            <mxPoint x="741.48" y="596.3140000000001" as="sourcePoint" />
            <mxPoint x="333.46000000000004" y="440.3399999999999" as="targetPoint" />
          </mxGeometry>
        </mxCell>
        <mxCell id="IxA2MM6vDqe0YE7jZ0CJ-30" value="" style="rounded=1;whiteSpace=wrap;html=1;arcSize=26;" vertex="1" parent="1">
          <mxGeometry x="55" y="625" width="310" height="175" as="geometry" />
        </mxCell>
        <mxCell id="IxA2MM6vDqe0YE7jZ0CJ-31" value="" style="rounded=0;whiteSpace=wrap;html=1;dashed=1;dashPattern=1 4;" vertex="1" parent="1">
          <mxGeometry x="85" y="660" width="250" height="120" as="geometry" />
        </mxCell>
        <mxCell id="IxA2MM6vDqe0YE7jZ0CJ-32" value="虚拟数据库空间客户端节点" style="text;html=1;strokeColor=none;fillColor=none;align=center;verticalAlign=middle;whiteSpace=wrap;rounded=0;dashed=1;dashPattern=1 4;" vertex="1" parent="1">
          <mxGeometry x="125" y="625" width="170" height="30" as="geometry" />
        </mxCell>
        <mxCell id="IxA2MM6vDqe0YE7jZ0CJ-33" value="账户客户端&lt;br&gt;模块" style="rounded=0;whiteSpace=wrap;html=1;" vertex="1" parent="1">
          <mxGeometry x="92" y="675" width="68" height="45" as="geometry" />
        </mxCell>
        <mxCell id="IxA2MM6vDqe0YE7jZ0CJ-34" value="数据操作信息管理客户端模块" style="rounded=0;whiteSpace=wrap;html=1;" vertex="1" parent="1">
          <mxGeometry x="92" y="730" width="68" height="45" as="geometry" />
        </mxCell>
        <mxCell id="IxA2MM6vDqe0YE7jZ0CJ-35" value="数据操作客户端模块" style="rounded=0;whiteSpace=wrap;html=1;" vertex="1" parent="1">
          <mxGeometry x="172" y="675" width="73" height="100" as="geometry" />
        </mxCell>
        <mxCell id="IxA2MM6vDqe0YE7jZ0CJ-37" value="数据资源访问客户端模块&lt;span style=&quot;color: rgba(0, 0, 0, 0); font-family: monospace; font-size: 0px; text-align: start;&quot;&gt;%3CmxGraphModel%3E%3Croot%3E%3CmxCell%20id%3D%220%22%2F%3E%3CmxCell%20id%3D%221%22%20parent%3D%220%22%2F%3E%3CmxCell%20id%3D%222%22%20value%3D%22%E6%9D%83%E9%99%90%E5%AE%A2%E6%88%B7%E7%AB%AF%E6%A8%A1%E5%9D%97%22%20style%3D%22rounded%3D0%3BwhiteSpace%3Dwrap%3Bhtml%3D1%3Bdashed%3D1%3BdashPattern%3D1%204%3B%22%20vertex%3D%221%22%20parent%3D%221%22%3E%3CmxGeometry%20x%3D%22280%22%20y%3D%2270%22%20width%3D%2273%22%20height%3D%2245%22%20as%3D%22geometry%22%2F%3E%3C%2FmxCell%3E%3C%2Froot%3E%3C%2FmxGraphModel%3E&lt;/span&gt;" style="rounded=0;whiteSpace=wrap;html=1;" vertex="1" parent="1">
          <mxGeometry x="255" y="675" width="70" height="100" as="geometry" />
        </mxCell>
        <mxCell id="IxA2MM6vDqe0YE7jZ0CJ-38" value="数据库资源管理平台" style="text;html=1;strokeColor=none;fillColor=none;align=center;verticalAlign=middle;whiteSpace=wrap;rounded=0;dashed=1;dashPattern=1 4;" vertex="1" parent="1">
          <mxGeometry x="520" y="616.5" width="170" height="30" as="geometry" />
        </mxCell>
        <mxCell id="IxA2MM6vDqe0YE7jZ0CJ-39" value="局域网" style="ellipse;whiteSpace=wrap;html=1;" vertex="1" parent="1">
          <mxGeometry x="354" y="845" width="120" height="80" as="geometry" />
        </mxCell>
        <mxCell id="IxA2MM6vDqe0YE7jZ0CJ-40" value="" style="endArrow=none;html=1;rounded=0;entryX=0.5;entryY=1;entryDx=0;entryDy=0;exitX=0;exitY=0;exitDx=0;exitDy=0;" edge="1" parent="1" source="IxA2MM6vDqe0YE7jZ0CJ-39" target="IxA2MM6vDqe0YE7jZ0CJ-30">
          <mxGeometry width="50" height="50" relative="1" as="geometry">
            <mxPoint x="280" y="910" as="sourcePoint" />
            <mxPoint x="330" y="860" as="targetPoint" />
          </mxGeometry>
        </mxCell>
        <mxCell id="IxA2MM6vDqe0YE7jZ0CJ-41" value="" style="rounded=1;whiteSpace=wrap;html=1;arcSize=21;" vertex="1" parent="1">
          <mxGeometry x="452.25" y="950" width="320" height="185.5" as="geometry" />
        </mxCell>
        <mxCell id="IxA2MM6vDqe0YE7jZ0CJ-42" value="数据库存储集群" style="text;html=1;strokeColor=none;fillColor=none;align=center;verticalAlign=middle;whiteSpace=wrap;rounded=0;dashed=1;dashPattern=1 4;" vertex="1" parent="1">
          <mxGeometry x="534" y="949.9999999999999" width="170" height="30" as="geometry" />
        </mxCell>
        <mxCell id="IxA2MM6vDqe0YE7jZ0CJ-48" value="" style="rounded=0;whiteSpace=wrap;html=1;fillColor=none;dashed=1;" vertex="1" parent="1">
          <mxGeometry x="485" y="988.5999999999999" width="80" height="65" as="geometry" />
        </mxCell>
        <mxCell id="IxA2MM6vDqe0YE7jZ0CJ-49" value="" style="strokeWidth=2;html=1;shape=mxgraph.flowchart.database;whiteSpace=wrap;fillColor=none;" vertex="1" parent="1">
          <mxGeometry x="497" y="1008.5999999999999" width="25" height="20" as="geometry" />
        </mxCell>
        <mxCell id="IxA2MM6vDqe0YE7jZ0CJ-50" value="" style="strokeWidth=2;html=1;shape=mxgraph.flowchart.database;whiteSpace=wrap;fillColor=none;" vertex="1" parent="1">
          <mxGeometry x="497" y="1028.6" width="25" height="20" as="geometry" />
        </mxCell>
        <mxCell id="IxA2MM6vDqe0YE7jZ0CJ-51" value="" style="strokeWidth=2;html=1;shape=mxgraph.flowchart.database;whiteSpace=wrap;fillColor=none;" vertex="1" parent="1">
          <mxGeometry x="527" y="1008.5999999999999" width="25" height="20" as="geometry" />
        </mxCell>
        <mxCell id="IxA2MM6vDqe0YE7jZ0CJ-52" value="" style="strokeWidth=2;html=1;shape=mxgraph.flowchart.database;whiteSpace=wrap;fillColor=none;" vertex="1" parent="1">
          <mxGeometry x="527" y="1028.6" width="25" height="20" as="geometry" />
        </mxCell>
        <mxCell id="IxA2MM6vDqe0YE7jZ0CJ-53" value="" style="rounded=0;whiteSpace=wrap;html=1;fillColor=none;dashed=1;" vertex="1" parent="1">
          <mxGeometry x="577" y="988.5999999999999" width="80" height="65" as="geometry" />
        </mxCell>
        <mxCell id="IxA2MM6vDqe0YE7jZ0CJ-54" value="" style="rounded=0;whiteSpace=wrap;html=1;fillColor=none;dashed=1;" vertex="1" parent="1">
          <mxGeometry x="669" y="988.5999999999999" width="80" height="65" as="geometry" />
        </mxCell>
        <mxCell id="IxA2MM6vDqe0YE7jZ0CJ-55" value="" style="strokeWidth=2;html=1;shape=mxgraph.flowchart.database;whiteSpace=wrap;fillColor=none;" vertex="1" parent="1">
          <mxGeometry x="590" y="1008.5999999999999" width="25" height="20" as="geometry" />
        </mxCell>
        <mxCell id="IxA2MM6vDqe0YE7jZ0CJ-56" value="" style="strokeWidth=2;html=1;shape=mxgraph.flowchart.database;whiteSpace=wrap;fillColor=none;" vertex="1" parent="1">
          <mxGeometry x="590" y="1028.6" width="25" height="20" as="geometry" />
        </mxCell>
        <mxCell id="IxA2MM6vDqe0YE7jZ0CJ-57" value="" style="strokeWidth=2;html=1;shape=mxgraph.flowchart.database;whiteSpace=wrap;fillColor=none;" vertex="1" parent="1">
          <mxGeometry x="620" y="1008.5999999999999" width="25" height="20" as="geometry" />
        </mxCell>
        <mxCell id="IxA2MM6vDqe0YE7jZ0CJ-58" value="" style="strokeWidth=2;html=1;shape=mxgraph.flowchart.database;whiteSpace=wrap;fillColor=none;" vertex="1" parent="1">
          <mxGeometry x="620" y="1028.6" width="25" height="20" as="geometry" />
        </mxCell>
        <mxCell id="IxA2MM6vDqe0YE7jZ0CJ-59" value="" style="strokeWidth=2;html=1;shape=mxgraph.flowchart.database;whiteSpace=wrap;fillColor=none;" vertex="1" parent="1">
          <mxGeometry x="681" y="1008.5999999999999" width="25" height="20" as="geometry" />
        </mxCell>
        <mxCell id="IxA2MM6vDqe0YE7jZ0CJ-60" value="" style="strokeWidth=2;html=1;shape=mxgraph.flowchart.database;whiteSpace=wrap;fillColor=none;" vertex="1" parent="1">
          <mxGeometry x="681" y="1028.6" width="25" height="20" as="geometry" />
        </mxCell>
        <mxCell id="IxA2MM6vDqe0YE7jZ0CJ-61" value="" style="strokeWidth=2;html=1;shape=mxgraph.flowchart.database;whiteSpace=wrap;fillColor=none;" vertex="1" parent="1">
          <mxGeometry x="711" y="1008.5999999999999" width="25" height="20" as="geometry" />
        </mxCell>
        <mxCell id="IxA2MM6vDqe0YE7jZ0CJ-62" value="" style="strokeWidth=2;html=1;shape=mxgraph.flowchart.database;whiteSpace=wrap;fillColor=none;" vertex="1" parent="1">
          <mxGeometry x="711" y="1028.6" width="25" height="20" as="geometry" />
        </mxCell>
        <mxCell id="IxA2MM6vDqe0YE7jZ0CJ-63" value="Mysql" style="text;html=1;strokeColor=none;fillColor=none;align=center;verticalAlign=middle;whiteSpace=wrap;rounded=0;dashed=1;dashPattern=1 4;" vertex="1" parent="1">
          <mxGeometry x="495" y="988.5999999999999" width="55" height="20" as="geometry" />
        </mxCell>
        <mxCell id="IxA2MM6vDqe0YE7jZ0CJ-64" value="金仓" style="text;html=1;strokeColor=none;fillColor=none;align=center;verticalAlign=middle;whiteSpace=wrap;rounded=0;dashed=1;dashPattern=1 4;" vertex="1" parent="1">
          <mxGeometry x="590" y="988.5999999999999" width="55" height="20" as="geometry" />
        </mxCell>
        <mxCell id="IxA2MM6vDqe0YE7jZ0CJ-65" value="达梦" style="text;html=1;strokeColor=none;fillColor=none;align=center;verticalAlign=middle;whiteSpace=wrap;rounded=0;dashed=1;dashPattern=1 4;" vertex="1" parent="1">
          <mxGeometry x="681.5" y="988.5999999999999" width="55" height="20" as="geometry" />
        </mxCell>
        <mxCell id="IxA2MM6vDqe0YE7jZ0CJ-66" value="" style="rounded=0;whiteSpace=wrap;html=1;fillColor=none;dashed=1;" vertex="1" parent="1">
          <mxGeometry x="485" y="988.5999999999999" width="80" height="65" as="geometry" />
        </mxCell>
        <mxCell id="IxA2MM6vDqe0YE7jZ0CJ-67" value="Mysql" style="text;html=1;strokeColor=none;fillColor=none;align=center;verticalAlign=middle;whiteSpace=wrap;rounded=0;dashed=1;dashPattern=1 4;" vertex="1" parent="1">
          <mxGeometry x="495" y="988.5999999999999" width="55" height="20" as="geometry" />
        </mxCell>
        <mxCell id="IxA2MM6vDqe0YE7jZ0CJ-68" value="Mysql" style="text;html=1;strokeColor=none;fillColor=none;align=center;verticalAlign=middle;whiteSpace=wrap;rounded=0;dashed=1;dashPattern=1 4;" vertex="1" parent="1">
          <mxGeometry x="495" y="988.5999999999999" width="55" height="20" as="geometry" />
        </mxCell>
        <mxCell id="IxA2MM6vDqe0YE7jZ0CJ-69" value="" style="rounded=0;whiteSpace=wrap;html=1;fillColor=none;dashed=1;" vertex="1" parent="1">
          <mxGeometry x="669" y="988.5999999999999" width="80" height="65" as="geometry" />
        </mxCell>
        <mxCell id="IxA2MM6vDqe0YE7jZ0CJ-70" value="" style="rounded=0;whiteSpace=wrap;html=1;fillColor=none;dashed=1;" vertex="1" parent="1">
          <mxGeometry x="486" y="1063" width="80" height="65" as="geometry" />
        </mxCell>
        <mxCell id="IxA2MM6vDqe0YE7jZ0CJ-71" value="" style="strokeWidth=2;html=1;shape=mxgraph.flowchart.database;whiteSpace=wrap;fillColor=none;" vertex="1" parent="1">
          <mxGeometry x="499" y="1083" width="25" height="20" as="geometry" />
        </mxCell>
        <mxCell id="IxA2MM6vDqe0YE7jZ0CJ-72" value="" style="strokeWidth=2;html=1;shape=mxgraph.flowchart.database;whiteSpace=wrap;fillColor=none;" vertex="1" parent="1">
          <mxGeometry x="499" y="1103" width="25" height="20" as="geometry" />
        </mxCell>
        <mxCell id="IxA2MM6vDqe0YE7jZ0CJ-73" value="" style="strokeWidth=2;html=1;shape=mxgraph.flowchart.database;whiteSpace=wrap;fillColor=none;" vertex="1" parent="1">
          <mxGeometry x="529" y="1083" width="25" height="20" as="geometry" />
        </mxCell>
        <mxCell id="IxA2MM6vDqe0YE7jZ0CJ-74" value="" style="strokeWidth=2;html=1;shape=mxgraph.flowchart.database;whiteSpace=wrap;fillColor=none;" vertex="1" parent="1">
          <mxGeometry x="529" y="1103" width="25" height="20" as="geometry" />
        </mxCell>
        <mxCell id="IxA2MM6vDqe0YE7jZ0CJ-75" value="" style="rounded=0;whiteSpace=wrap;html=1;fillColor=none;dashed=1;" vertex="1" parent="1">
          <mxGeometry x="577" y="1063" width="80" height="65" as="geometry" />
        </mxCell>
        <mxCell id="IxA2MM6vDqe0YE7jZ0CJ-76" value="" style="strokeWidth=2;html=1;shape=mxgraph.flowchart.database;whiteSpace=wrap;fillColor=none;" vertex="1" parent="1">
          <mxGeometry x="590" y="1083" width="25" height="20" as="geometry" />
        </mxCell>
        <mxCell id="IxA2MM6vDqe0YE7jZ0CJ-77" value="" style="strokeWidth=2;html=1;shape=mxgraph.flowchart.database;whiteSpace=wrap;fillColor=none;" vertex="1" parent="1">
          <mxGeometry x="590" y="1103" width="25" height="20" as="geometry" />
        </mxCell>
        <mxCell id="IxA2MM6vDqe0YE7jZ0CJ-78" value="" style="strokeWidth=2;html=1;shape=mxgraph.flowchart.database;whiteSpace=wrap;fillColor=none;" vertex="1" parent="1">
          <mxGeometry x="620" y="1083" width="25" height="20" as="geometry" />
        </mxCell>
        <mxCell id="IxA2MM6vDqe0YE7jZ0CJ-79" value="" style="strokeWidth=2;html=1;shape=mxgraph.flowchart.database;whiteSpace=wrap;fillColor=none;" vertex="1" parent="1">
          <mxGeometry x="620" y="1103" width="25" height="20" as="geometry" />
        </mxCell>
        <mxCell id="IxA2MM6vDqe0YE7jZ0CJ-80" value="" style="rounded=0;whiteSpace=wrap;html=1;fillColor=none;dashed=1;" vertex="1" parent="1">
          <mxGeometry x="667" y="1063" width="80" height="65" as="geometry" />
        </mxCell>
        <mxCell id="IxA2MM6vDqe0YE7jZ0CJ-81" value="" style="strokeWidth=2;html=1;shape=mxgraph.flowchart.database;whiteSpace=wrap;fillColor=none;" vertex="1" parent="1">
          <mxGeometry x="680" y="1083" width="25" height="20" as="geometry" />
        </mxCell>
        <mxCell id="IxA2MM6vDqe0YE7jZ0CJ-82" value="" style="strokeWidth=2;html=1;shape=mxgraph.flowchart.database;whiteSpace=wrap;fillColor=none;" vertex="1" parent="1">
          <mxGeometry x="680" y="1103" width="25" height="20" as="geometry" />
        </mxCell>
        <mxCell id="IxA2MM6vDqe0YE7jZ0CJ-83" value="" style="strokeWidth=2;html=1;shape=mxgraph.flowchart.database;whiteSpace=wrap;fillColor=none;" vertex="1" parent="1">
          <mxGeometry x="710" y="1083" width="25" height="20" as="geometry" />
        </mxCell>
        <mxCell id="IxA2MM6vDqe0YE7jZ0CJ-84" value="" style="strokeWidth=2;html=1;shape=mxgraph.flowchart.database;whiteSpace=wrap;fillColor=none;" vertex="1" parent="1">
          <mxGeometry x="710" y="1103" width="25" height="20" as="geometry" />
        </mxCell>
        <mxCell id="IxA2MM6vDqe0YE7jZ0CJ-85" value="Redis" style="text;html=1;strokeColor=none;fillColor=none;align=center;verticalAlign=middle;whiteSpace=wrap;rounded=0;dashed=1;dashPattern=1 4;" vertex="1" parent="1">
          <mxGeometry x="481" y="1063" width="90" height="20" as="geometry" />
        </mxCell>
        <mxCell id="IxA2MM6vDqe0YE7jZ0CJ-86" value="ELK" style="text;html=1;strokeColor=none;fillColor=none;align=center;verticalAlign=middle;whiteSpace=wrap;rounded=0;dashed=1;dashPattern=1 4;" vertex="1" parent="1">
          <mxGeometry x="572" y="1063" width="90" height="20" as="geometry" />
        </mxCell>
        <mxCell id="IxA2MM6vDqe0YE7jZ0CJ-87" value="MongoDB" style="text;html=1;strokeColor=none;fillColor=none;align=center;verticalAlign=middle;whiteSpace=wrap;rounded=0;dashed=1;dashPattern=1 4;" vertex="1" parent="1">
          <mxGeometry x="662" y="1063" width="90" height="20" as="geometry" />
        </mxCell>
        <mxCell id="IxA2MM6vDqe0YE7jZ0CJ-88" value="" style="rounded=1;whiteSpace=wrap;html=1;arcSize=26;" vertex="1" parent="1">
          <mxGeometry x="481.75" y="635.75" width="310" height="175" as="geometry" />
        </mxCell>
        <mxCell id="IxA2MM6vDqe0YE7jZ0CJ-89" value="" style="rounded=1;whiteSpace=wrap;html=1;arcSize=26;" vertex="1" parent="1">
          <mxGeometry x="472.25" y="630.75" width="310" height="175" as="geometry" />
        </mxCell>
        <mxCell id="IxA2MM6vDqe0YE7jZ0CJ-90" value="" style="rounded=1;whiteSpace=wrap;html=1;arcSize=26;" vertex="1" parent="1">
          <mxGeometry x="462.25" y="625.25" width="310" height="175" as="geometry" />
        </mxCell>
        <mxCell id="IxA2MM6vDqe0YE7jZ0CJ-91" value="" style="rounded=0;whiteSpace=wrap;html=1;dashed=1;dashPattern=1 4;" vertex="1" parent="1">
          <mxGeometry x="492.25" y="660" width="267.75" height="120.25" as="geometry" />
        </mxCell>
        <mxCell id="IxA2MM6vDqe0YE7jZ0CJ-92" value="数据操作代理节点" style="text;html=1;strokeColor=none;fillColor=none;align=center;verticalAlign=middle;whiteSpace=wrap;rounded=0;dashed=1;dashPattern=1 4;" vertex="1" parent="1">
          <mxGeometry x="532.25" y="625.25" width="170" height="30" as="geometry" />
        </mxCell>
        <mxCell id="IxA2MM6vDqe0YE7jZ0CJ-93" value="关系型数据库单表自定义操作模块" style="rounded=0;whiteSpace=wrap;html=1;" vertex="1" parent="1">
          <mxGeometry x="680" y="675" width="70.75" height="45" as="geometry" />
        </mxCell>
        <mxCell id="IxA2MM6vDqe0YE7jZ0CJ-94" value="非关系型数据库简单操作模块" style="rounded=0;whiteSpace=wrap;html=1;" vertex="1" parent="1">
          <mxGeometry x="499.25" y="730" width="80.75" height="45" as="geometry" />
        </mxCell>
        <mxCell id="IxA2MM6vDqe0YE7jZ0CJ-95" value="关系型数据库单表简单操作模块" style="rounded=0;whiteSpace=wrap;html=1;" vertex="1" parent="1">
          <mxGeometry x="500" y="675" width="80.75" height="45" as="geometry" />
        </mxCell>
        <mxCell id="IxA2MM6vDqe0YE7jZ0CJ-96" value="关系型数据库多表连接查询模块" style="rounded=0;whiteSpace=wrap;html=1;" vertex="1" parent="1">
          <mxGeometry x="593" y="675" width="80.75" height="45" as="geometry" />
        </mxCell>
        <mxCell id="IxA2MM6vDqe0YE7jZ0CJ-97" value="" style="rounded=1;whiteSpace=wrap;html=1;arcSize=26;" vertex="1" parent="1">
          <mxGeometry x="74.5" y="960.5" width="310" height="175" as="geometry" />
        </mxCell>
        <mxCell id="IxA2MM6vDqe0YE7jZ0CJ-98" value="" style="rounded=1;whiteSpace=wrap;html=1;arcSize=26;" vertex="1" parent="1">
          <mxGeometry x="65" y="955.5" width="310" height="175" as="geometry" />
        </mxCell>
        <mxCell id="IxA2MM6vDqe0YE7jZ0CJ-99" value="" style="rounded=1;whiteSpace=wrap;html=1;arcSize=26;" vertex="1" parent="1">
          <mxGeometry x="55" y="950" width="310" height="175" as="geometry" />
        </mxCell>
        <mxCell id="IxA2MM6vDqe0YE7jZ0CJ-100" value="" style="rounded=0;whiteSpace=wrap;html=1;dashed=1;dashPattern=1 4;" vertex="1" parent="1">
          <mxGeometry x="85" y="985" width="250" height="120" as="geometry" />
        </mxCell>
        <mxCell id="IxA2MM6vDqe0YE7jZ0CJ-101" value="数据操作信息管理节点" style="text;html=1;strokeColor=none;fillColor=none;align=center;verticalAlign=middle;whiteSpace=wrap;rounded=0;dashed=1;dashPattern=1 4;" vertex="1" parent="1">
          <mxGeometry x="125" y="950" width="170" height="30" as="geometry" />
        </mxCell>
        <mxCell id="IxA2MM6vDqe0YE7jZ0CJ-102" value="元数据信息管理模块" style="rounded=0;whiteSpace=wrap;html=1;" vertex="1" parent="1">
          <mxGeometry x="92" y="1000" width="63" height="45" as="geometry" />
        </mxCell>
        <mxCell id="IxA2MM6vDqe0YE7jZ0CJ-103" value="数据操作日志模块" style="rounded=0;whiteSpace=wrap;html=1;" vertex="1" parent="1">
          <mxGeometry x="92" y="1055" width="60" height="45" as="geometry" />
        </mxCell>
        <mxCell id="IxA2MM6vDqe0YE7jZ0CJ-104" value="数据管理模块" style="rounded=0;whiteSpace=wrap;html=1;" vertex="1" parent="1">
          <mxGeometry x="257" y="1000" width="73" height="45" as="geometry" />
        </mxCell>
        <mxCell id="IxA2MM6vDqe0YE7jZ0CJ-105" value="自定义SQL语句管理模块" style="rounded=0;whiteSpace=wrap;html=1;" vertex="1" parent="1">
          <mxGeometry x="172" y="1055" width="73" height="45" as="geometry" />
        </mxCell>
        <mxCell id="IxA2MM6vDqe0YE7jZ0CJ-106" value="数据操作语句管理模块" style="rounded=0;whiteSpace=wrap;html=1;" vertex="1" parent="1">
          <mxGeometry x="173" y="1000" width="70" height="45" as="geometry" />
        </mxCell>
        <mxCell id="IxA2MM6vDqe0YE7jZ0CJ-117" value="" style="endArrow=none;html=1;rounded=0;entryX=0.5;entryY=1;entryDx=0;entryDy=0;exitX=1;exitY=0;exitDx=0;exitDy=0;" edge="1" parent="1" source="IxA2MM6vDqe0YE7jZ0CJ-39" target="IxA2MM6vDqe0YE7jZ0CJ-90">
          <mxGeometry width="50" height="50" relative="1" as="geometry">
            <mxPoint x="450" y="850" as="sourcePoint" />
            <mxPoint x="270" y="870" as="targetPoint" />
          </mxGeometry>
        </mxCell>
        <mxCell id="IxA2MM6vDqe0YE7jZ0CJ-118" value="" style="endArrow=none;html=1;rounded=0;entryX=0;entryY=1;entryDx=0;entryDy=0;exitX=0.5;exitY=0;exitDx=0;exitDy=0;" edge="1" parent="1" source="IxA2MM6vDqe0YE7jZ0CJ-101" target="IxA2MM6vDqe0YE7jZ0CJ-39">
          <mxGeometry width="50" height="50" relative="1" as="geometry">
            <mxPoint x="250" y="940" as="sourcePoint" />
            <mxPoint x="300" y="890" as="targetPoint" />
          </mxGeometry>
        </mxCell>
        <mxCell id="IxA2MM6vDqe0YE7jZ0CJ-121" value="非关系型数据库复杂操作模块" style="rounded=0;whiteSpace=wrap;html=1;" vertex="1" parent="1">
          <mxGeometry x="593" y="730" width="80.75" height="45" as="geometry" />
        </mxCell>
        <mxCell id="IxA2MM6vDqe0YE7jZ0CJ-122" value="非关系型数据库自定义操作模块" style="rounded=0;whiteSpace=wrap;html=1;" vertex="1" parent="1">
          <mxGeometry x="680" y="730" width="70" height="45" as="geometry" />
        </mxCell>
        <mxCell id="IxA2MM6vDqe0YE7jZ0CJ-123" value="查询结果管理模块" style="rounded=0;whiteSpace=wrap;html=1;" vertex="1" parent="1">
          <mxGeometry x="257" y="1055" width="73" height="45" as="geometry" />
        </mxCell>
        <mxCell id="IxA2MM6vDqe0YE7jZ0CJ-124" value="" style="endArrow=none;html=1;rounded=0;entryX=1;entryY=1;entryDx=0;entryDy=0;exitX=0.5;exitY=0;exitDx=0;exitDy=0;" edge="1" parent="1" source="IxA2MM6vDqe0YE7jZ0CJ-42" target="IxA2MM6vDqe0YE7jZ0CJ-39">
          <mxGeometry width="50" height="50" relative="1" as="geometry">
            <mxPoint x="600" y="900" as="sourcePoint" />
            <mxPoint x="650" y="850" as="targetPoint" />
          </mxGeometry>
        </mxCell>
      </root>
    </mxGraphModel>
  </diagram>
</mxfile>
